<svg width="92" height="22" viewBox="0 0 92 22" fill="none" xmlns="http://www.w3.org/2000/svg">
<path d="M5.92754 16.7143C4.73754 16.7143 3.68226 16.4926 2.78415 16.0714C1.88603 15.6502 1.21245 15.0296 0.718489 14.2759C0.224527 13.5 0 12.6133 0 11.5936H2.06566C2.06566 12.2143 2.22283 12.8128 2.51471 13.3448C2.8066 13.8768 3.2332 14.298 3.81698 14.6084C4.3783 14.9187 5.09678 15.0739 5.92754 15.0739C7.02772 15.0739 7.90338 14.8079 8.50961 14.298C9.11583 13.766 9.43017 13.1232 9.43017 12.3251C9.43017 11.6823 9.29546 11.1502 9.00357 10.7734C8.71168 10.3744 8.35244 10.064 7.85848 9.8202C7.38697 9.57636 6.8481 9.35468 6.21942 9.17734C5.6132 9 4.96207 8.77833 4.28848 8.55665C3.03113 8.13547 2.08811 7.58128 1.48188 6.96059C0.875657 6.31773 0.56132 5.49754 0.56132 4.45567C0.538867 3.59113 0.740942 2.83744 1.16754 2.15025C1.59415 1.48522 2.17792 0.953202 2.96377 0.576355C3.72716 0.199507 4.64773 0 5.70301 0C6.75829 0 7.6564 0.199507 8.4198 0.576355C9.18319 0.953202 9.78942 1.48522 10.216 2.17241C10.6426 2.85961 10.8672 3.6133 10.8896 4.47783H8.8464C8.8464 4.03448 8.73413 3.59113 8.48715 3.14778C8.24017 2.70443 7.90338 2.34975 7.43187 2.08374C6.96036 1.79557 6.35414 1.66256 5.63565 1.66256C4.73754 1.64039 4.01905 1.86207 3.45773 2.32759C2.89641 2.7931 2.60452 3.43596 2.60452 4.23399C2.60452 4.92118 2.8066 5.4532 3.21075 5.83005C3.6149 6.2069 4.17622 6.49507 4.87226 6.73892C5.59075 6.98276 6.4215 7.24877 7.34206 7.55911C8.12791 7.84729 8.82395 8.15764 9.45262 8.53448C10.0813 8.91133 10.5528 9.37685 10.9121 9.97537C11.2713 10.5517 11.4285 11.3054 11.4285 12.2143C11.4285 12.9901 11.2264 13.7217 10.8222 14.3867C10.4181 15.0739 9.81187 15.6281 8.98112 16.0714C8.19527 16.4926 7.16244 16.7143 5.92754 16.7143Z" fill="#928894"/>
<path d="M17.8051 16.4262C16.7498 16.4262 15.919 16.1823 15.3128 15.6725C14.7066 15.1626 14.3922 14.2537 14.3922 12.9237V6.60596H12.3715V4.96557H14.3922L14.6392 2.2168H16.3456V4.96557H19.7585V6.60596H16.3456V12.9015C16.3456 13.6331 16.5028 14.1207 16.7947 14.3646C17.0866 14.6084 17.603 14.7414 18.3664 14.7414H19.5788V16.404H17.8051V16.4262Z" fill="#928894"/>
<path d="M26.0452 16.7142C24.9451 16.7142 23.9571 16.4704 23.1039 15.9605C22.2507 15.4507 21.5771 14.7635 21.0832 13.8768C20.5892 12.9901 20.3422 11.9261 20.3422 10.7069C20.3422 9.50981 20.5892 8.44577 21.0607 7.55907C21.5547 6.6502 22.2283 5.96301 23.0815 5.45316C23.9571 4.94331 24.9451 4.69946 26.0901 4.69946C27.2128 4.69946 28.1783 4.94331 29.009 5.45316C29.8173 5.96301 30.446 6.60587 30.8951 7.42606C31.3217 8.24626 31.5462 9.11079 31.5462 10.064C31.5462 10.2413 31.5462 10.3965 31.5237 10.5738C31.5237 10.7512 31.5013 10.9285 31.5013 11.1502H22.2732C22.3181 12.0369 22.5202 12.7463 22.9019 13.3226C23.2611 13.899 23.7326 14.3423 24.2715 14.6305C24.8328 14.9187 25.4166 15.0738 26.0452 15.0738C26.8535 15.0738 27.5271 14.8965 28.0885 14.5197C28.6273 14.1428 29.0315 13.6551 29.2784 13.0123H31.2094C30.8951 14.0763 30.3113 14.963 29.4132 15.6502C28.5375 16.3596 27.4149 16.7142 26.0452 16.7142ZM26.0452 6.33986C25.1022 6.33986 24.2715 6.62803 23.553 7.18222C22.8345 7.73641 22.4079 8.55661 22.2956 9.64281H29.5928C29.5479 8.60094 29.1886 7.80291 28.5151 7.22656C27.8415 6.62803 27.0107 6.33986 26.0452 6.33986Z" fill="#928894"/>
<path d="M33.2975 21.5024V4.96542H35.0713L35.2509 6.84966C35.6326 6.29547 36.149 5.78562 36.845 5.34227C37.5411 4.89892 38.4167 4.67725 39.4945 4.67725C40.6396 4.67725 41.6499 4.94326 42.5031 5.45311C43.3564 5.98513 44.0299 6.69449 44.5014 7.60335C44.973 8.51222 45.2199 9.55409 45.2199 10.7068C45.2199 11.8595 44.973 12.8792 44.5014 13.7881C44.0299 14.697 43.3564 15.4063 42.4807 15.9162C41.605 16.426 40.5947 16.692 39.4496 16.692C38.5065 16.692 37.6533 16.4925 36.9124 16.1157C36.1715 15.7388 35.6101 15.1846 35.206 14.4974V21.5024H33.2975ZM39.2924 15.0295C40.0782 15.0295 40.7518 14.8521 41.3581 14.4974C41.9418 14.1428 42.4133 13.6329 42.7726 12.9901C43.1094 12.3472 43.289 11.5935 43.289 10.729C43.289 9.86444 43.1094 9.11074 42.7726 8.46789C42.4358 7.82503 41.9643 7.31518 41.3581 6.9605C40.7743 6.60582 40.0782 6.42848 39.2924 6.42848C38.5066 6.42848 37.833 6.60582 37.2267 6.9605C36.643 7.31518 36.1715 7.82503 35.8122 8.46789C35.4754 9.11074 35.2958 9.86444 35.2958 10.729C35.2958 11.5935 35.4754 12.3472 35.8122 12.9901C36.149 13.6329 36.6205 14.1428 37.2267 14.4974C37.833 14.83 38.5066 15.0295 39.2924 15.0295Z" fill="#928894"/>
<path d="M64.5967 16.7142C63.4291 16.7142 62.3963 16.4704 61.4758 15.9827C60.5776 15.495 59.8592 14.8078 59.3427 13.899C58.8263 13.0123 58.5793 11.9704 58.5793 10.7955C58.5793 9.62065 58.8263 8.55661 59.3427 7.62557C59.8592 6.69454 60.5552 5.98518 61.4533 5.47532C62.3514 4.96547 63.4067 4.69946 64.6191 4.69946C65.7642 4.69946 66.7522 4.94331 67.6278 5.43099C68.5035 5.91867 69.1771 6.60587 69.671 7.44823C70.165 8.31276 70.412 9.2438 70.412 10.3078C70.412 10.4852 70.412 10.6625 70.3895 10.8399C70.3895 11.0172 70.3671 11.2167 70.3446 11.4162H61.5207C61.588 12.3029 61.9024 13.0123 62.4637 13.5221C63.025 14.032 63.721 14.2758 64.5293 14.2758C65.1356 14.2758 65.652 14.1428 66.0561 13.8768C66.4603 13.6108 66.7746 13.2561 66.9767 12.8349H70.0078C69.7833 13.5665 69.424 14.2093 68.9301 14.8078C68.4137 15.4064 67.8074 15.8719 67.0665 16.2044C66.3705 16.5369 65.5397 16.7142 64.5967 16.7142ZM64.9335 7.09355C64.1925 7.09355 63.5639 7.29306 63.0025 7.71424C62.4412 8.11326 62.082 8.73395 61.9248 9.57631H67.6952C67.6503 8.82262 67.3584 8.22409 66.842 7.78074C66.3256 7.31523 65.6969 7.09355 64.9335 7.09355Z" fill="#7D7180"/>
<path d="M71.9163 16.426V4.96542H74.5882L74.8576 7.11567C75.2842 6.38414 75.8455 5.78562 76.5865 5.34227C77.305 4.89892 78.1582 4.67725 79.1461 4.67725V7.80286H78.3154C77.6642 7.80286 77.0804 7.9137 76.564 8.11321C76.0476 8.31271 75.6435 8.66739 75.3516 9.15508C75.0597 9.64276 74.925 10.33 74.925 11.2167V16.426H71.9163Z" fill="#7D7180"/>
<path d="M85.6574 16.7143C84.5348 16.7143 83.5244 16.4705 82.6263 15.9606C81.7282 15.4508 81.0097 14.7414 80.4933 13.8547C79.9769 12.9459 79.7074 11.904 79.7074 10.7291C79.7074 9.55424 79.9769 8.4902 80.4933 7.6035C81.0321 6.69464 81.7282 6.00744 82.6263 5.49759C83.5244 4.98774 84.5348 4.7439 85.6574 4.7439C86.7576 4.7439 87.768 4.98774 88.6661 5.49759C89.5642 6.00744 90.2827 6.7168 90.7991 7.6035C91.3155 8.51237 91.585 9.55424 91.585 10.7291C91.585 11.904 91.3155 12.968 90.7991 13.8547C90.2827 14.7636 89.5642 15.4508 88.6661 15.9606C87.768 16.4483 86.7576 16.7143 85.6574 16.7143ZM85.9493 14.1429C86.7352 14.1429 87.4087 13.8547 87.9925 13.2784C88.5763 12.702 88.8682 11.8375 88.8682 10.707C88.8682 9.57641 88.5763 8.71188 87.9925 8.13552C87.4087 7.55917 86.7352 7.27099 85.9718 7.27099C85.1859 7.27099 84.4899 7.55917 83.9286 8.13552C83.3672 8.71188 83.0753 9.57641 83.0753 10.707C83.0753 11.8375 83.3672 12.702 83.9286 13.2784C84.4899 13.8547 85.1635 14.1429 85.9493 14.1429Z" fill="#7D7180"/>
<path d="M49.6656 13.9656L57.2546 2.5272V0.266113H47.4203L46.3201 2.68237V2.7267H53.7969L46.2528 14.1651V16.4262H57.2995V13.9656H49.6656Z" fill="#7D7180"/>
</svg>
