<svg width="132" height="27" viewBox="0 0 132 27" fill="none" xmlns="http://www.w3.org/2000/svg">
<g clip-path="url(#clip0_184_3465)">
<path d="M17.6479 26.0911C17.5356 26.0911 17.4234 26.069 17.3111 26.0246L1.23491 18.6872C0.94302 18.5542 0.763397 18.2882 0.763397 17.9778C0.763397 17.6675 0.94302 17.3793 1.21245 17.2463L17.2887 9.70935C17.5132 9.59851 17.7602 9.59851 17.9847 9.70935L29.3458 15.0295C29.75 15.2069 29.9071 15.6946 29.7275 16.0936C29.5479 16.4926 29.0539 16.6478 28.6498 16.4704L17.6479 11.3054L3.48019 17.9557L17.6479 24.4286L33.3873 17.2463C33.7915 17.069 34.263 17.2463 34.465 17.6231C34.6447 18.0222 34.465 18.4877 34.0833 18.6872L18.0071 26.0246C17.8724 26.069 17.7602 26.0911 17.6479 26.0911Z" fill="url(#paint0_linear_184_3465)"/>
<path d="M17.6479 21.7242C17.5356 21.7242 17.4234 21.702 17.3111 21.6577L1.23491 14.3202C0.94302 14.1872 0.763397 13.9212 0.763397 13.6109C0.763397 13.3005 0.94302 13.0124 1.21245 12.8794L17.2887 5.34241C17.5132 5.23157 17.7602 5.23157 17.9847 5.34241L29.3458 10.6626C29.75 10.8399 29.9071 11.3276 29.7275 11.7266C29.5479 12.1257 29.0539 12.2808 28.6498 12.1035L17.6479 6.93846L3.48019 13.5887L17.6479 20.0616L28.6722 15.0518C29.0764 14.8744 29.5479 15.0518 29.7275 15.4508C29.9071 15.8498 29.7275 16.3153 29.3234 16.4927L17.9847 21.6355C17.8724 21.702 17.7602 21.7242 17.6479 21.7242Z" fill="url(#paint1_linear_184_3465)"/>
<path d="M17.6479 17.3572C17.5356 17.3572 17.4234 17.3351 17.3111 17.2907L1.23491 9.95329C0.94302 9.82029 0.763397 9.55428 0.763397 9.24393C0.763397 8.93359 0.94302 8.64541 1.21245 8.51241L17.2887 0.975462C17.5132 0.864625 17.7602 0.864625 17.9847 0.975462L34.0609 8.51241C34.465 8.68975 34.6222 9.17743 34.4426 9.57645C34.263 9.97546 33.769 10.1306 33.3649 9.95329L17.6479 2.57152L3.48019 9.22177L17.6479 15.6947L28.6722 10.6627C29.0764 10.4853 29.5479 10.6627 29.75 11.0395C29.9296 11.4385 29.75 11.904 29.3683 12.1035L17.9847 17.2907C17.8724 17.3351 17.7602 17.3572 17.6479 17.3572Z" fill="url(#paint2_linear_184_3465)"/>
<path d="M45.3546 19.84C44.1646 19.84 43.1094 19.6183 42.2113 19.1972C41.3131 18.776 40.6396 18.1553 40.1456 17.4016C39.6516 16.6257 39.4271 15.739 39.4271 14.7193H41.4928C41.4928 15.34 41.6499 15.9385 41.9418 16.4706C42.2337 17.0026 42.6603 17.4238 43.2441 17.7341C43.8054 18.0445 44.5239 18.1996 45.3546 18.1996C46.4548 18.1996 47.3305 17.9336 47.9367 17.4238C48.5429 16.8917 48.8573 16.2489 48.8573 15.4509C48.8573 14.808 48.7226 14.276 48.4307 13.8991C48.1388 13.5001 47.7795 13.1898 47.2856 12.9459C46.8141 12.7021 46.2752 12.4804 45.6465 12.3031C45.0403 12.1257 44.3892 11.9041 43.7156 11.6824C42.4582 11.2612 41.5152 10.707 40.909 10.0863C40.3028 9.44347 39.9884 8.62327 39.9884 7.5814C39.966 6.71687 40.1681 5.96317 40.5947 5.27598C41.0213 4.61095 41.605 4.07893 42.3909 3.70209C43.1543 3.32524 44.0748 3.12573 45.1301 3.12573C46.1854 3.12573 47.0835 3.32524 47.8469 3.70209C48.6103 4.07893 49.2165 4.61095 49.6431 5.29815C50.0697 5.98534 50.2943 6.73903 50.3167 7.60356H48.2735C48.2735 7.16022 48.1612 6.71687 47.9143 6.27352C47.6673 5.83017 47.3305 5.47549 46.859 5.20948C46.3875 4.9213 45.7812 4.78829 45.0628 4.78829C44.1646 4.76613 43.4462 4.9878 42.8848 5.45332C42.3235 5.91884 42.0316 6.56169 42.0316 7.35972C42.0316 8.04692 42.2337 8.57893 42.6379 8.95578C43.042 9.33263 43.6033 9.62081 44.2994 9.86465C45.0179 10.1085 45.8486 10.3745 46.7692 10.6848C47.555 10.973 48.2511 11.2834 48.8797 11.6602C49.5084 12.0371 49.9799 12.5026 50.3392 13.1011C50.6984 13.6775 50.8556 14.4312 50.8556 15.34C50.8556 16.1159 50.6535 16.8474 50.2494 17.5124C49.8452 18.1996 49.239 18.7538 48.4082 19.1972C47.6224 19.6183 46.5895 19.84 45.3546 19.84Z" fill="#928894"/>
<path d="M57.2322 19.5519C56.1769 19.5519 55.3461 19.308 54.7399 18.7982C54.1337 18.2883 53.8194 17.3795 53.8194 16.0494V9.73169H51.7986V8.0913H53.8194L54.0663 5.34253H55.7727V8.0913H59.1856V9.73169H55.7727V16.0273C55.7727 16.7588 55.9299 17.2465 56.2218 17.4903C56.5137 17.7342 57.0301 17.8672 57.7935 17.8672H59.0059V19.5297H57.2322V19.5519Z" fill="#928894"/>
<path d="M65.4724 19.84C64.3722 19.84 63.3842 19.5961 62.531 19.0863C61.6778 18.5764 61.0042 17.8892 60.5103 17.0025C60.0163 16.1158 59.7693 15.0518 59.7693 13.8326C59.7693 12.6355 60.0163 11.5715 60.4878 10.6848C60.9818 9.77593 61.6554 9.08874 62.5086 8.57889C63.3842 8.06904 64.3722 7.8252 65.5173 7.8252C66.6399 7.8252 67.6054 8.06904 68.4361 8.57889C69.2444 9.08874 69.8731 9.7316 70.3222 10.5518C70.7488 11.372 70.9733 12.2365 70.9733 13.1897C70.9733 13.3671 70.9733 13.5222 70.9508 13.6996C70.9508 13.8769 70.9284 14.0543 70.9284 14.2759H61.7003C61.7452 15.1626 61.9473 15.872 62.329 16.4483C62.6882 17.0247 63.1597 17.4681 63.6986 17.7562C64.2599 18.0444 64.8437 18.1996 65.4724 18.1996C66.2807 18.1996 66.9542 18.0222 67.5156 17.6454C68.0544 17.2685 68.4586 16.7809 68.7056 16.138H70.6365C70.3222 17.202 69.7384 18.0887 68.8403 18.7759C67.9646 19.4853 66.842 19.84 65.4724 19.84ZM65.4724 9.46559C64.5293 9.46559 63.6986 9.75377 62.9801 10.308C62.2616 10.8621 61.835 11.6823 61.7227 12.7685H69.0199C68.975 11.7267 68.6157 10.9286 67.9422 10.3523C67.2686 9.75377 66.4378 9.46559 65.4724 9.46559Z" fill="#928894"/>
<path d="M72.7246 24.6281V8.09116H74.4984L74.678 9.97539C75.0597 9.42121 75.5761 8.91135 76.2722 8.468C76.9682 8.02465 77.8438 7.80298 78.9216 7.80298C80.0667 7.80298 81.077 8.06899 81.9303 8.57884C82.7835 9.11086 83.457 9.82022 83.9286 10.7291C84.4001 11.638 84.647 12.6798 84.647 13.8325C84.647 14.9852 84.4001 16.0049 83.9286 16.9138C83.457 17.8227 82.7835 18.532 81.9078 19.0419C81.0321 19.5517 80.0218 19.8178 78.8767 19.8178C77.9337 19.8178 77.0805 19.6183 76.3395 19.2414C75.5986 18.8646 75.0372 18.3104 74.6331 17.6232V24.6281H72.7246ZM78.7195 18.1552C79.5054 18.1552 80.1789 17.9779 80.7852 17.6232C81.3689 17.2685 81.8404 16.7586 82.1997 16.1158C82.5365 15.4729 82.7161 14.7192 82.7161 13.8547C82.7161 12.9902 82.5365 12.2365 82.1997 11.5936C81.8629 10.9508 81.3914 10.4409 80.7852 10.0862C80.2014 9.73155 79.5054 9.55421 78.7195 9.55421C77.9337 9.55421 77.2601 9.73155 76.6538 10.0862C76.0701 10.4409 75.5986 10.9508 75.2393 11.5936C74.9025 12.2365 74.7229 12.9902 74.7229 13.8547C74.7229 14.7192 74.9025 15.4729 75.2393 16.1158C75.5761 16.7586 76.0476 17.2685 76.6538 17.6232C77.2601 17.9557 77.9337 18.1552 78.7195 18.1552Z" fill="#928894"/>
<path d="M104.024 19.84C102.856 19.84 101.823 19.5961 100.903 19.1084C100.005 18.6208 99.2863 17.9336 98.7698 17.0247C98.2534 16.138 98.0065 15.0961 98.0065 13.9213C98.0065 12.7464 98.2534 11.6823 98.7698 10.7513C99.2863 9.82027 99.9823 9.11091 100.88 8.60106C101.779 8.09121 102.834 7.8252 104.046 7.8252C105.191 7.8252 106.179 8.06904 107.055 8.55672C107.931 9.04441 108.604 9.7316 109.098 10.574C109.592 11.4385 109.839 12.3695 109.839 13.4336C109.839 13.6109 109.839 13.7882 109.817 13.9656C109.817 14.1429 109.794 14.3424 109.772 14.5419H100.948C101.015 15.4286 101.329 16.138 101.891 16.6479C102.452 17.1577 103.148 17.4016 103.956 17.4016C104.563 17.4016 105.079 17.2685 105.483 17.0025C105.887 16.7365 106.202 16.3818 106.404 15.9607H109.435C109.21 16.6922 108.851 17.335 108.357 17.9336C107.841 18.5321 107.235 18.9976 106.494 19.3301C105.798 19.6626 104.967 19.84 104.024 19.84ZM104.361 10.2193C103.62 10.2193 102.991 10.4188 102.43 10.84C101.868 11.239 101.509 11.8597 101.352 12.702H107.122C107.077 11.9483 106.785 11.3498 106.269 10.9065C105.753 10.441 105.124 10.2193 104.361 10.2193Z" fill="#7D7180"/>
<path d="M111.343 19.5517V8.09116H114.015L114.285 10.2414C114.711 9.50988 115.273 8.91135 116.014 8.468C116.732 8.02465 117.585 7.80298 118.573 7.80298V10.9286H117.742C117.091 10.9286 116.508 11.0394 115.991 11.2389C115.475 11.4384 115.071 11.7931 114.779 12.2808C114.487 12.7685 114.352 13.4557 114.352 14.3424V19.5517H111.343Z" fill="#7D7180"/>
<path d="M125.085 19.8401C123.962 19.8401 122.951 19.5962 122.053 19.0864C121.155 18.5765 120.437 17.8672 119.92 16.9805C119.404 16.0716 119.135 15.0297 119.135 13.8549C119.135 12.68 119.404 11.6159 119.92 10.7292C120.459 9.82037 121.155 9.13318 122.053 8.62332C122.951 8.11347 123.962 7.86963 125.085 7.86963C126.185 7.86963 127.195 8.11347 128.093 8.62332C128.991 9.13318 129.71 9.84254 130.226 10.7292C130.743 11.6381 131.012 12.68 131.012 13.8549C131.012 15.0297 130.743 16.0938 130.226 16.9805C129.71 17.8893 128.991 18.5765 128.093 19.0864C127.195 19.5741 126.185 19.8401 125.085 19.8401ZM125.376 17.2686C126.162 17.2686 126.836 16.9805 127.42 16.4041C128.003 15.8278 128.295 14.9632 128.295 13.8327C128.295 12.7021 128.003 11.8376 127.42 11.2613C126.836 10.6849 126.162 10.3967 125.399 10.3967C124.613 10.3967 123.917 10.6849 123.356 11.2613C122.794 11.8376 122.502 12.7021 122.502 13.8327C122.502 14.9632 122.794 15.8278 123.356 16.4041C123.917 16.9805 124.591 17.2686 125.376 17.2686Z" fill="#7D7180"/>
<path d="M89.0927 17.0914L96.6817 5.65293V3.39185H86.8474L85.7472 5.8081V5.85244H93.224L85.6799 17.2909V19.5519H96.7266V17.0914H89.0927Z" fill="#7D7180"/>
</g>
<defs>
<linearGradient id="paint0_linear_184_3465" x1="7.98653" y1="22.3099" x2="34.9006" y2="9.65323" gradientUnits="userSpaceOnUse">
<stop stop-color="#F15A29"/>
<stop offset="0.5025" stop-color="#D74E9C"/>
<stop offset="1" stop-color="#97449A"/>
</linearGradient>
<linearGradient id="paint1_linear_184_3465" x1="6.29628" y1="18.7157" x2="33.2103" y2="6.05905" gradientUnits="userSpaceOnUse">
<stop stop-color="#F15A29"/>
<stop offset="0.5025" stop-color="#D74E9C"/>
<stop offset="1" stop-color="#97449A"/>
</linearGradient>
<linearGradient id="paint2_linear_184_3465" x1="4.61001" y1="15.1299" x2="31.5241" y2="2.47329" gradientUnits="userSpaceOnUse">
<stop stop-color="#F15A29"/>
<stop offset="0.5025" stop-color="#D74E9C"/>
<stop offset="1" stop-color="#97449A"/>
</linearGradient>
<clipPath id="clip0_184_3465">
<rect width="132" height="27" fill="white"/>
</clipPath>
</defs>
</svg>
