<svg width="35" height="27" viewBox="0 0 35 27" fill="none" xmlns="http://www.w3.org/2000/svg">
<g clip-path="url(#clip0_184_3489)">
<path d="M17.6479 26.0911C17.5356 26.0911 17.4234 26.069 17.3111 26.0246L1.23491 18.6872C0.94302 18.5542 0.763397 18.2882 0.763397 17.9778C0.763397 17.6675 0.94302 17.3793 1.21245 17.2463L17.2887 9.70935C17.5132 9.59851 17.7602 9.59851 17.9847 9.70935L29.3458 15.0295C29.75 15.2069 29.9071 15.6946 29.7275 16.0936C29.5479 16.4926 29.0539 16.6478 28.6498 16.4704L17.6479 11.3054L3.48019 17.9557L17.6479 24.4286L33.3873 17.2463C33.7915 17.069 34.263 17.2463 34.465 17.6231C34.6447 18.0222 34.465 18.4877 34.0833 18.6872L18.0071 26.0246C17.8724 26.069 17.7602 26.0911 17.6479 26.0911Z" fill="url(#paint0_linear_184_3489)"/>
<path d="M17.6479 21.7242C17.5356 21.7242 17.4234 21.702 17.3111 21.6577L1.23491 14.3202C0.94302 14.1872 0.763397 13.9212 0.763397 13.6109C0.763397 13.3005 0.94302 13.0124 1.21245 12.8794L17.2887 5.34241C17.5132 5.23157 17.7602 5.23157 17.9847 5.34241L29.3458 10.6626C29.75 10.8399 29.9071 11.3276 29.7275 11.7266C29.5479 12.1257 29.0539 12.2808 28.6498 12.1035L17.6479 6.93846L3.48019 13.5887L17.6479 20.0616L28.6722 15.0518C29.0764 14.8744 29.5479 15.0518 29.7275 15.4508C29.9071 15.8498 29.7275 16.3153 29.3234 16.4927L17.9847 21.6355C17.8724 21.702 17.7602 21.7242 17.6479 21.7242Z" fill="url(#paint1_linear_184_3489)"/>
<path d="M17.6479 17.3572C17.5356 17.3572 17.4234 17.3351 17.3111 17.2907L1.23491 9.95329C0.94302 9.82029 0.763397 9.55428 0.763397 9.24393C0.763397 8.93359 0.94302 8.64541 1.21245 8.51241L17.2887 0.975462C17.5132 0.864625 17.7602 0.864625 17.9847 0.975462L34.0609 8.51241C34.465 8.68975 34.6222 9.17743 34.4426 9.57645C34.263 9.97546 33.769 10.1306 33.3649 9.95329L17.6479 2.57152L3.48019 9.22177L17.6479 15.6947L28.6722 10.6627C29.0764 10.4853 29.5479 10.6627 29.75 11.0395C29.9296 11.4385 29.75 11.904 29.3683 12.1035L17.9847 17.2907C17.8724 17.3351 17.7602 17.3572 17.6479 17.3572Z" fill="url(#paint2_linear_184_3489)"/>
</g>
<defs>
<linearGradient id="paint0_linear_184_3489" x1="7.98653" y1="22.3099" x2="34.9006" y2="9.65323" gradientUnits="userSpaceOnUse">
<stop stop-color="#F15A29"/>
<stop offset="0.5025" stop-color="#D74E9C"/>
<stop offset="1" stop-color="#97449A"/>
</linearGradient>
<linearGradient id="paint1_linear_184_3489" x1="6.29628" y1="18.7157" x2="33.2103" y2="6.05905" gradientUnits="userSpaceOnUse">
<stop stop-color="#F15A29"/>
<stop offset="0.5025" stop-color="#D74E9C"/>
<stop offset="1" stop-color="#97449A"/>
</linearGradient>
<linearGradient id="paint2_linear_184_3489" x1="4.61001" y1="15.1299" x2="31.5241" y2="2.47329" gradientUnits="userSpaceOnUse">
<stop stop-color="#F15A29"/>
<stop offset="0.5025" stop-color="#D74E9C"/>
<stop offset="1" stop-color="#97449A"/>
</linearGradient>
<clipPath id="clip0_184_3489">
<rect width="35" height="27" fill="white"/>
</clipPath>
</defs>
</svg>
